<svg style="background:white" class="concept-svg" xmlns="http://www.w3.org/2000/svg" viewBox="0 0 550 570" role="img" aria-label="「部分」と「全体」を、並べて比べる。DE∥BC。AD=3、DB=2、BC=10。DEを求めたい。"><polygon points="220,114 90,314 408,314" fill="#f7f9f5" stroke="#61716b" stroke-width="1.5"/><polygon points="220,114 142.0,234.0 332.8,234.0" fill="#edf3f9" stroke="#61716b" stroke-width="1.5"/><text x="213" y="100" fill="#253b39" font-size="18" font-family="sans-serif">A</text><text x="73" y="338" fill="#253b39" font-size="18" font-family="sans-serif">B</text><text x="417" y="338" fill="#253b39" font-size="18" font-family="sans-serif">C</text><text x="118.0" y="237.0" fill="#253b39" font-size="18" font-family="sans-serif">D</text><text x="342.8" y="237.0" fill="#253b39" font-size="18" font-family="sans-serif">E</text><line x1="220" y1="114" x2="142.0" y2="234.0" stroke="#3566a0" stroke-width="4" stroke-dasharray=""/><line x1="142.0" y1="234.0" x2="90" y2="314" stroke="#98502f" stroke-width="4" stroke-dasharray="8 5"/><text x="154" y="171" fill="#3566a0" font-size="25" font-family="sans-serif">3</text><text x="80" y="265" fill="#98502f" font-size="25" font-family="sans-serif">2</text><text x="13" y="40" fill="#3566a0" font-size="21" font-family="sans-serif">① ここまでが3。</text><text x="13" y="68" fill="#98502f" font-size="21" font-family="sans-serif">残りが2。</text><line x1="71" y1="88" x2="71" y2="155" stroke="#3566a0" stroke-width="1.5" stroke-dasharray=""/><line x1="71" y1="155" x2="167" y2="190" stroke="#3566a0" stroke-width="1.5" stroke-dasharray=""/><line x1="167" y1="190" x2="158.0453162031703" y2="190.90201890157329" stroke="#3566a0" stroke-width="1.5" stroke-dasharray=""/><line x1="167" y1="190" x2="160.72710361058387" y2="183.54625915552458" stroke="#3566a0" stroke-width="1.5" stroke-dasharray=""/><line x1="34" y1="89" x2="34" y2="278" stroke="#98502f" stroke-width="1.5" stroke-dasharray=""/><line x1="34" y1="278" x2="104" y2="287" stroke="#98502f" stroke-width="1.5" stroke-dasharray=""/><line x1="104" y1="287" x2="95.46293108534186" y2="289.8492901478049" stroke="#98502f" stroke-width="1.5" stroke-dasharray=""/><line x1="104" y1="287" x2="96.46134721672287" y2="282.0838313481749" stroke="#98502f" stroke-width="1.5" stroke-dasharray=""/><text x="198" y="224" fill="#253b39" font-size="19" font-family="sans-serif">DE = ?</text><text x="211" y="344" fill="#253b39" font-size="19" font-family="sans-serif">BC = 10</text><line x1="275" y1="229.0" x2="283" y2="234.0" stroke="#253b39" stroke-width="1.8" stroke-dasharray=""/><line x1="283" y1="234.0" x2="275" y2="239.0" stroke="#253b39" stroke-width="1.8" stroke-dasharray=""/><line x1="275" y1="309" x2="283" y2="314" stroke="#253b39" stroke-width="1.8" stroke-dasharray=""/><line x1="283" y1="314" x2="275" y2="319" stroke="#253b39" stroke-width="1.8" stroke-dasharray=""/><text x="358" y="367" fill="#253b39" font-size="17" font-family="sans-serif">DE ∥ BC</text><text x="319" y="40" fill="#253b39" font-size="19" font-family="sans-serif">まとめると……</text><text x="319" y="74" fill="#253b39" font-size="23" font-family="sans-serif">全体は 3+2=5</text><line x1="480" y1="114" x2="480" y2="234" stroke="#3566a0" stroke-width="4" stroke-dasharray=""/><line x1="480" y1="234" x2="480" y2="314" stroke="#98502f" stroke-width="4" stroke-dasharray="8 5"/><text x="449" y="119" fill="#253b39" font-size="18" font-family="sans-serif">A</text><text x="449" y="239" fill="#253b39" font-size="18" font-family="sans-serif">D</text><text x="449" y="320" fill="#253b39" font-size="18" font-family="sans-serif">B</text><line x1="486" y1="86" x2="486" y2="103" stroke="#61716b" stroke-width="1.5" stroke-dasharray=""/><line x1="486" y1="103" x2="482.0853101929989" y2="94.89597607882591" stroke="#61716b" stroke-width="1.5" stroke-dasharray=""/><line x1="486" y1="103" x2="489.9146898070011" y2="94.89597607882591" stroke="#61716b" stroke-width="1.5" stroke-dasharray=""/><line x1="511" y1="114" x2="511" y2="314" stroke="#61716b" stroke-width="1.6" stroke-dasharray="2 4"/><line x1="505" y1="114" x2="518" y2="114" stroke="#61716b" stroke-width="1.6" stroke-dasharray=""/><line x1="505" y1="314" x2="518" y2="314" stroke="#61716b" stroke-width="1.6" stroke-dasharray=""/><text x="521" y="225" fill="#253b39" font-size="23" font-family="sans-serif">5</text><text x="26" y="389" fill="#253b39" font-size="21" font-family="sans-serif">② 比べる相手は「全体」！</text><text x="86" y="435" fill="#3566a0" font-size="25" font-family="sans-serif">AD</text><text x="132" y="435" fill="#253b39" font-size="25" font-family="sans-serif">：</text><text x="163" y="435" fill="#253b39" font-size="25" font-family="sans-serif">AB</text><text x="213" y="435" fill="#253b39" font-size="25" font-family="sans-serif">= 3：5</text><text x="81" y="465" fill="#3566a0" font-size="15" font-family="sans-serif">上だけ</text><text x="165" y="465" fill="#253b39" font-size="15" font-family="sans-serif">全部</text><text x="55" y="511" fill="#253b39" font-size="22" font-family="sans-serif">だから DE：BC も 3：5。</text><text x="102" y="551" fill="#253b39" font-size="23" font-family="sans-serif">DE = 10 × 3/5 = 6</text></svg>